<svg xmlns="http://www.w3.org/2000/svg" viewBox="0 0 582.36 107.52"><defs><style>.cls-1{fill:none;stroke:#231f20;stroke-miterlimit:10;stroke-width:4px;}.cls-2{fill:#231f20;}</style></defs><g id="Слой_2" data-name="Слой 2"><g id="Layer_1" data-name="Layer 1"><g id="decoration_3" data-name="decoration 3"><rect class="cls-1" x="286.61" y="23.15" width="10" height="10" transform="translate(65.5 214.44) rotate(-45)"/><rect class="cls-1" x="280.84" y="67.36" width="21.54" height="21.54" transform="translate(30.16 229.08) rotate(-45)"/><path class="cls-2" d="M581.4,56.9c-5,.22-10.07.32-15.11.48s-10.08.22-15.11.29l-15.12.17L521,57.9h-.83l-.59-.59-5.89-5.88h2.83L499.91,68l-1.42,1.43L497.07,68,486.53,57.47h2.85l-4.94,5V59.57l4.8,4.79h-2.86l9.56-9.57v2.87l-9.9-9.9h2.88l-9.57,9.58-.6.6h-.84L370.49,58l1.47-.61L356.45,72.9,355,74.38l-1.49-1.48L308.3,27.75,285.71,5.18l-.61-.5L285,4.61H285l-.09,0-.15-.08c-.14-.06-.36-.1-.52-.17a5.51,5.51,0,0,1-.57-.06,2.84,2.84,0,0,0-2.07.87l-5.65,5.64-11.28,11.3V19l51.2,51.17h-3.08l14.5-14.51v3.09L313,44.51h3.1L307.57,53V49.89l27.6,27.58H332l29-29v3.16L339.89,30.53h3.17l-7,7V34.36L350,48.48l1.57,1.59L350,51.66,321.79,79.91,307.67,94l-7.05,7.06-3.53,3.53-.44.45-.22.22-.06,0-.22.21-.13.1a6.48,6.48,0,0,1-1.24.89,10.14,10.14,0,0,1-.93.47l-.87.26a8.4,8.4,0,0,1-1.8.25,7.32,7.32,0,0,1-3.48-.92,6.63,6.63,0,0,1-1.48-1c-.26-.22-.34-.32-.51-.48l-.44-.45-3.53-3.53L274.69,94,260.57,79.91,232.35,51.66l-1.59-1.59,1.58-1.59,13.94-14.12v3.16l-7-7h3.17L221.35,51.64V48.48l29,29h-3.13l27.6-27.58V53l-8.49-8.49h3.11L255.12,58.79V55.7l14.49,14.51h-3.08L317.74,19v3l-11.29-11.3-5.64-5.64a2.89,2.89,0,0,0-4.16,0L274.06,27.75,228.88,72.9l-1.48,1.48-1.48-1.48L210.4,57.37l1.47.61-107.42,0h-.84l-.6-.6-9.57-9.58h2.88l-9.9,9.9V54.79L96,64.36H93.12l4.81-4.79v2.85l-5-5h2.85L85.29,68l-1.42,1.43L82.45,68,65.89,51.43h2.83l-5.89,5.88-.59.59h-.82L46.3,57.84l-15.11-.17c-5-.07-10.08-.18-15.12-.29S6,57.12,1,56.9a1,1,0,0,1,0-2c5-.22,10.07-.32,15.11-.48s10.08-.22,15.12-.28L46.3,54l15.12-.06L60,54.49l5.89-5.9,1.41-1.41,1.42,1.41L85.29,65.16H82.45L93,54.62l1.42-1.43,1.43,1.43,5,5L102.21,61l-1.43,1.43L96,67.23l-1.43,1.43-1.44-1.43-9.57-9.57-1.44-1.43,1.44-1.44,9.89-9.9,1.44-1.44,1.44,1.44,9.58,9.56-1.45-.6,107.42,0h.87l.61.61,15.53,15.52h-3l45.14-45.19L293.64,2.16A7.24,7.24,0,0,1,298.71,0c.47,0,.94.07,1.41.13s.91.25,1.37.42a11.77,11.77,0,0,1,1.41.79l.38.31.2.16.09.08.05,0,.21.18,5.64,5.65L320.77,19l1.52,1.52-1.52,1.52-51.16,51.2-1.54,1.54-1.54-1.54L252,58.79l-1.55-1.54L252,55.7,266.3,41.41l1.55-1.55,1.56,1.55,8.49,8.48,1.55,1.56L277.9,53,250.32,80.6l-1.56,1.57-1.57-1.57-29-29-1.58-1.58,1.58-1.58,21.1-21.12,1.59-1.58,1.59,1.58,7,7,1.58,1.57-1.57,1.59L235.55,51.64V48.47l28.25,28.22,14.12,14.12,7.06,7,3.53,3.53.45.44a3.25,3.25,0,0,0,.39.38c.19.12.33.31.55.38a2.89,2.89,0,0,0,1.29.35c.22-.06.46,0,.67-.1l.32-.09c.09,0,.12-.07.18-.09s.49-.32.78-.55l.12-.1-.14.13,0,0,.06-.06.22-.22.44-.44,3.53-3.53,7.06-7,14.13-14.12,28.25-28.22v3.17L332.88,37.51l-1.56-1.59,1.57-1.57,7-7,1.59-1.58,1.59,1.58,21.1,21.12,1.58,1.58-1.58,1.58-29,29-1.56,1.57L332,80.6,304.46,53l-1.55-1.55,1.55-1.56,8.5-8.48,1.55-1.55,1.55,1.55L330.34,55.7l1.54,1.55-1.54,1.54L315.83,73.28l-1.54,1.54-1.54-1.54-51.16-51.2-1.52-1.52L261.59,19l11.3-11.28,5.64-5.65A7.19,7.19,0,0,1,283.65,0a13.41,13.41,0,0,1,1.42.16,10.78,10.78,0,0,1,1.37.43l.73.39.36.21.17.11.1.08.39.31.19.16.1.08.2.19.05,0L311.3,24.75l45.15,45.19h-3L369,54.42l.62-.61h.86l107.42,0-1.45.6L486,44.89l1.44-1.44,1.44,1.44,9.89,9.9,1.44,1.44-1.44,1.43-9.57,9.57-1.43,1.43-1.43-1.43-4.8-4.81L480.15,61l1.43-1.42,4.95-5L488,53.19l1.42,1.43,10.53,10.54h-2.84l16.57-16.57,1.42-1.41,1.41,1.41,5.89,5.9L521,53.9l15.11.06,15.12.18c5,.06,10.07.17,15.11.28s10.08.26,15.11.48a1,1,0,0,1,0,2Z"/></g></g></g></svg>